<?xml version="1.0" encoding="iso-8859-1"?>
<!--Generator: Adobe Illustrator 16.0.0, SVG Export Plug-In . SVG Version: 6.00 Build 0)-->
<!DOCTYPE svg PUBLIC "-//W3C//DTD SVG 1.1//EN" "http://www.w3.org/Graphics/SVG/1.1/DTD/svg11.dtd">
<svg version="1.1" id="Capa_1" xmlns="http://www.w3.org/2000/svg" xmlns:xlink="http://www.w3.org/1999/xlink" x="0px" y="0px" width="310.42px" height="310.42px" viewBox="0 0 310.42 310.42" style="enable-background:new 0 0 310.42 310.42" xml:space="preserve">
	<style>
	g {
		fill: #34c759;
	}

	</style>
	<g>
		<g>
			<path d="M273.587,214.965c49.11-49.111,49.109-129.021,0-178.132c-49.111-49.111-129.021-49.111-178.13,0
			C53.793,78.497,47.483,140.462,76.51,188.85c0,0,2.085,3.498-0.731,6.312c-16.065,16.064-64.263,64.263-64.263,64.263
			c-12.791,12.79-15.836,30.675-4.493,42.02l1.953,1.951c11.343,11.345,29.23,8.301,42.019-4.49c0,0,48.096-48.097,64.128-64.128
			c2.951-2.951,6.448-0.866,6.448-0.866C169.958,262.938,231.923,256.629,273.587,214.965z M118.711,191.71
			c-36.288-36.288-36.287-95.332,0.001-131.62c36.288-36.287,95.332-36.288,131.619,0c36.288,36.287,36.288,95.332,0,131.62
			C214.043,227.996,155,227.996,118.711,191.71z" />
			<g>
				<path d="M187.956,61.372c-17.965,0-32.581,14.615-32.581,32.58c0,17.965,14.616,32.58,32.581,32.58s32.581-14.615,32.581-32.58
				C220.537,75.987,205.921,61.372,187.956,61.372z" />
				<path d="M212.313,127.241c-0.954,0.174-1.635,0.752-2.224,1.259c-5.868,5.054-13.825,6.366-22.135,6.366
				c-8.111,0-16.822-0.988-22.037-6.468c-0.619-0.65-1.192-1.036-2.073-1.188c-8.454-1.463-13.387,10.89-13.387,19.978v22.063
				c0,11.87,9.657,21.526,21.527,21.526h31.94c11.87,0,21.527-9.656,21.527-21.526v-22.063
				C225.454,138.1,220.757,125.706,212.313,127.241z" />
			</g>
		</g>
	</g>
</svg>
