<svg width="99" height="29" viewBox="0 0 99 29" fill="none" xmlns="http://www.w3.org/2000/svg">
<path d="M4.81445 19.3855C6.42578 19.3855 7.57812 18.5457 8.03711 17.3738H8.08594V17.9792C8.08594 18.9363 8.70117 19.4246 9.52148 19.4246C10.3516 19.4246 10.9375 18.9265 10.9375 17.9792V6.40698C10.9375 5.43042 10.3516 4.91284 9.51172 4.91284C8.68164 4.91284 8.08594 5.43042 8.08594 6.40698V10.5476H8.02734C7.51953 9.3855 6.34766 8.58472 4.83398 8.58472C2.20703 8.58472 0.546875 10.6453 0.546875 13.9656C0.546875 17.3152 2.19727 19.3855 4.81445 19.3855ZM5.78125 17.0906C4.3457 17.0906 3.4668 15.9089 3.4668 13.9851C3.4668 12.071 4.3457 10.8699 5.78125 10.8699C7.19727 10.8699 8.10547 12.0808 8.10547 13.9851C8.10547 15.8992 7.19727 17.0906 5.78125 17.0906ZM14.3164 7.4519C15.1758 7.4519 15.8398 6.79761 15.8398 5.97729C15.8398 5.14722 15.1758 4.50269 14.3164 4.50269C13.457 4.50269 12.793 5.14722 12.793 5.97729C12.793 6.79761 13.457 7.4519 14.3164 7.4519ZM14.3164 19.4246C15.1953 19.4246 15.7422 18.8679 15.7422 17.9402V10.03C15.7422 9.10229 15.1953 8.53589 14.3164 8.53589C13.4277 8.53589 12.8906 9.10229 12.8906 10.03V17.9402C12.8906 18.8679 13.4277 19.4246 14.3164 19.4246ZM19.0723 19.4246C19.9414 19.4246 20.498 18.8875 20.498 17.9402V13.2917C20.498 12.0515 20.957 11.3191 22.2559 11.2996C22.8125 11.2898 23.2227 11.1628 23.4961 10.9285C23.7695 10.6941 23.9062 10.3523 23.9062 9.90308C23.9062 9.41479 23.7695 9.06323 23.4961 8.84839C23.291 8.67261 22.9883 8.58472 22.6074 8.58472C21.5625 8.58472 20.7031 9.3562 20.4297 10.655H20.3711V9.97144C20.3711 9.06323 19.8242 8.53589 19.0234 8.53589C18.2031 8.53589 17.6465 9.06323 17.6465 9.97144V17.9402C17.6465 18.8875 18.2129 19.4246 19.0723 19.4246ZM29.3945 19.4441C31.416 19.4441 33.0371 18.6824 33.7305 17.3933C33.8574 17.1589 33.9258 16.9246 33.9258 16.7C33.9258 16.0457 33.4277 15.655 32.8125 15.655C32.4414 15.655 32.1875 15.7625 31.8848 16.075C31.1133 16.9832 30.4297 17.3347 29.3848 17.3347C27.9395 17.3347 27.002 16.3191 27.002 14.7664V14.6394H32.9785C33.7695 14.6394 34.2188 14.1902 34.2188 13.3992C34.2188 10.5574 32.2266 8.52612 29.2578 8.52612C26.1621 8.52612 24.1992 10.6648 24.1992 14.0339C24.1992 17.4226 26.123 19.4441 29.3945 19.4441ZM27.0312 12.8914C27.1289 11.5535 28.0371 10.6355 29.2871 10.6355C30.5371 10.6355 31.416 11.5242 31.4746 12.8914H27.0312ZM40.4688 19.4441C42.4707 19.4441 44.2578 18.448 44.8828 17.0222C45.0098 16.739 45.0684 16.5046 45.0684 16.28C45.0684 15.5769 44.5312 15.1375 43.8672 15.1375C43.2617 15.1375 42.9492 15.3816 42.5684 15.9773C42.1289 16.7195 41.5137 17.2078 40.5176 17.2078C39.0918 17.2078 38.2031 16.0359 38.2031 13.9753C38.2031 11.9539 39.0918 10.7625 40.5371 10.7625C41.4453 10.7625 42.0801 11.1824 42.5977 12.1003C42.8906 12.6179 43.2324 12.8425 43.7988 12.8425C44.4727 12.8425 45.0195 12.4324 45.0195 11.7292C45.0195 11.5242 44.9609 11.2703 44.8633 11.0261C44.2969 9.54175 42.5488 8.52612 40.4492 8.52612C37.3047 8.52612 35.3125 10.6355 35.3125 13.9851C35.3125 17.3738 37.3145 19.4441 40.4688 19.4441ZM47.3535 16.5437C47.3535 18.3894 48.3203 19.3367 50.2246 19.3367H50.3223C51.5234 19.3367 52.3438 18.907 52.3438 18.0671C52.3438 17.4031 51.9629 17.1101 51.2598 17.032L51.0742 17.0125C50.459 16.9636 50.2051 16.6511 50.2051 15.9089V10.8992H51.2109C51.8848 10.8992 52.3047 10.4792 52.3047 9.82495C52.3047 9.17065 51.8848 8.75073 51.2109 8.75073H50.2051V7.58862C50.2051 6.67065 49.668 6.10425 48.7793 6.10425C47.8906 6.10425 47.3535 6.67065 47.3535 7.58862V8.75073H46.8066C46.1328 8.75073 45.7031 9.16089 45.7031 9.82495C45.7031 10.489 46.1328 10.8992 46.8066 10.8992H47.3535V16.5437ZM78.4473 19.4246C79.3164 19.4246 79.873 18.8875 79.873 17.9402V13.2917C79.873 12.0515 80.332 11.3191 81.6309 11.2996C82.1875 11.2898 82.5977 11.1628 82.8711 10.9285C83.1445 10.6941 83.2812 10.3523 83.2812 9.90308C83.2812 9.41479 83.1445 9.06323 82.8711 8.84839C82.666 8.67261 82.3633 8.58472 81.9824 8.58472C80.9375 8.58472 80.0781 9.3562 79.8047 10.655H79.7461V9.97144C79.7461 9.06323 79.1992 8.53589 78.3984 8.53589C77.5781 8.53589 77.0215 9.06323 77.0215 9.97144V17.9402C77.0215 18.8875 77.5879 19.4246 78.4473 19.4246ZM86.084 23.0964C88.3789 23.0964 89.5898 22.1003 90.5664 19.3953L93.7793 10.6648C93.877 10.3914 93.9355 10.0593 93.9355 9.82495C93.9355 9.073 93.3691 8.53589 92.5488 8.53589C91.8164 8.53589 91.4062 8.87769 91.1719 9.6687L88.8965 16.9343H88.8477L86.5723 9.68823C86.3379 8.85815 85.9473 8.53589 85.1953 8.53589C84.3555 8.53589 83.7207 9.09253 83.7207 9.86401C83.7207 10.0984 83.7793 10.4109 83.8867 10.7039L87.2266 19.5125L87.0801 19.8835C86.7383 20.616 86.2012 20.8308 85.7031 20.8308C85.5078 20.8308 85.4004 20.821 85.2051 20.821C84.5605 20.821 84.1602 21.1824 84.1602 21.7585C84.1602 22.6179 84.834 23.0964 86.084 23.0964Z" fill="#34C759"/>
<g clip-path="url(#clip0)">
<path d="M71.9223 20.8321C76.1243 16.63 76.1243 9.79251 71.9223 5.59034C67.7201 1.38818 60.8826 1.38818 56.6806 5.59034C53.1157 9.15531 52.5757 14.4573 55.0594 18.5976C55.0594 18.5976 55.2378 18.8969 54.9969 19.1377C53.6223 20.5122 49.4982 24.6363 49.4982 24.6363C48.4038 25.7307 48.1432 27.261 49.1138 28.2318L49.2809 28.3987C50.2515 29.3694 51.782 29.109 52.8762 28.0145C52.8762 28.0145 56.9916 23.8991 58.3633 22.5274C58.6158 22.2749 58.9151 22.4533 58.9151 22.4533C63.0553 24.9369 68.3573 24.3971 71.9223 20.8321ZM58.6703 18.8423C55.5654 15.7374 55.5655 10.6853 58.6704 7.58032C61.7754 4.47544 66.8275 4.47535 69.9324 7.58032C73.0373 10.6852 73.0373 15.7374 69.9324 18.8423C66.8274 21.9471 61.7754 21.9471 58.6703 18.8423Z" fill="#34C759"/>
<path d="M64.5945 7.69019C63.0574 7.69019 61.8068 8.94071 61.8068 10.4779C61.8068 12.0151 63.0574 13.2656 64.5945 13.2656C66.1317 13.2656 67.3823 12.0151 67.3823 10.4779C67.3823 8.94071 66.1317 7.69019 64.5945 7.69019Z" fill="#34C759"/>
<path d="M66.6787 13.3263C66.597 13.3412 66.5388 13.3906 66.4884 13.434C65.9863 13.8665 65.3054 13.9787 64.5944 13.9787C63.9004 13.9787 63.155 13.8942 62.7088 13.4253C62.6559 13.3697 62.6068 13.3367 62.5314 13.3236C61.8081 13.1985 61.386 14.2554 61.386 15.0331V16.9209C61.386 17.9365 62.2123 18.7627 63.2279 18.7627H65.9609C66.9765 18.7627 67.8028 17.9365 67.8028 16.9209V15.0331C67.8031 14.2554 67.4012 13.195 66.6787 13.3263Z" fill="#34C759"/>
</g>
<defs>
<clipPath id="clip0">
<rect width="26.561" height="26.561" fill="white" transform="translate(48.5122 2.43896)"/>
</clipPath>
</defs>
</svg>
